<svg xmlns="http://www.w3.org/2000/svg" width="92.332" height="64.97" viewBox="0 0 92.332 64.97">
  <path id="handshake" d="M92.063,105.912,81.947,78.676A4.321,4.321,0,0,0,76.4,76.134l-6.771,2.514a4.318,4.318,0,0,0-2.541,5.544l.11.3c-1.6.608-3.39-.056-6.123-1.2-4.08-1.708-9.615-4-16.641.392-5.7-3.549-10.177-2.674-14.139-1.885a19.731,19.731,0,0,1-5.91.572,4.293,4.293,0,0,0-2.956-3.654L14.559,76.5a4.32,4.32,0,0,0-5.428,2.78L.209,106.926a4.317,4.317,0,0,0,2.781,5.428l6.873,2.218a4.211,4.211,0,0,0,4.3-1.015c.042.209.1.416.15.624L12.6,117.4a5.958,5.958,0,0,0-.392,4.592A5.59,5.59,0,0,0,15,125.34a5.835,5.835,0,0,0,3.615.63,6.03,6.03,0,0,0,.035,3.556,5.591,5.591,0,0,0,2.8,3.352,5.832,5.832,0,0,0,4.469.436,5.909,5.909,0,0,0,1.659-.8,5.583,5.583,0,0,0,2.783,3.3,5.831,5.831,0,0,0,4.469.436,6,6,0,0,0,.959-.384,6.875,6.875,0,0,0,3.352,4.292,5.594,5.594,0,0,0,2.613.675c1.707,0,3.527-.875,4.844-3.336l.257-.48.291.153.687.358a5.3,5.3,0,0,0,2.436.624,5.009,5.009,0,0,0,4.376-2.767,5.354,5.354,0,0,0,.494-3.631,6.1,6.1,0,0,0,2.087-.255,6.006,6.006,0,0,0,4.216-6.611,6.074,6.074,0,0,0,8.328-6.521,4.767,4.767,0,0,0,5.546-1.09,6.774,6.774,0,0,0,1.376-6.106l.347-.125.02-.007.144.388a4.313,4.313,0,0,0,5.544,2.541l6.771-2.514a4.318,4.318,0,0,0,2.542-5.544Zm-79.146,5.114a1.827,1.827,0,0,1-2.288,1.172l-6.874-2.219a1.819,1.819,0,0,1-1.172-2.287l8.922-27.651a1.8,1.8,0,0,1,.9-1.056,1.821,1.821,0,0,1,.831-.2,1.8,1.8,0,0,1,.553.087h0l6.874,2.218a1.826,1.826,0,0,1,1.171,2.287l-7.123,22.076a1.229,1.229,0,0,0-.083.189c-.063.193-.111.388-.166.582Zm3.233,12.1a3.133,3.133,0,0,1-1.568-1.892,3.448,3.448,0,0,1,.214-2.658l1.944-3.635h0l.929-1.736a3.381,3.381,0,0,1,4.5-1.42c1.067.746,2.668,2.332,1.453,4.6l-.662,1.237-2.214,4.14A3.384,3.384,0,0,1,16.15,123.124ZM27.2,129.293a3.387,3.387,0,0,1-4.6,1.368,3.134,3.134,0,0,1-1.568-1.892,3.447,3.447,0,0,1,.214-2.658l1.7-3.173,2.214-4.14a3.373,3.373,0,0,1,5.948,3.183l-.622,1.163,0,0-2.526,4.723h0Zm6.913,4.569a3.372,3.372,0,0,1-2.6-.264,3.134,3.134,0,0,1-1.568-1.891,3.45,3.45,0,0,1,.212-2.655l0,0,2.526-4.723v0a3.373,3.373,0,0,1,5.947,3.186l-1.263,2.362-1.12,2.093v0l-.142.266a3.35,3.35,0,0,1-2,1.632Zm6.212,4.1c-1.636-.875-2.806-3.069-1.87-4.82l1.12-2.093v0a3.912,3.912,0,0,1,2.13-1.794,3.179,3.179,0,0,1,2.59.121c1.644.879,1.909,1.648,1.965,2.15a6.155,6.155,0,0,1-1.041,3.272v0l-.815,1.524c-1.381,2.584-3.148,2.135-4.079,1.637Zm12.118-3.732a2.443,2.443,0,0,1-3.461,1.084l-.669-.349L48,134.8a6.934,6.934,0,0,0,.738-3.556,4.837,4.837,0,0,0-2.285-3.464l4.914,2.639A2.846,2.846,0,0,1,52.438,134.226ZM73.477,115.6c-.8.881-1.906.956-3.279.221l-3.559-1.9-.007,0c-.036-.019-.074-.031-.112-.046l-11.475-6.229a1.248,1.248,0,0,0-1.19,2.193l11.718,6.361a3.578,3.578,0,0,1-3.5,6.241l-3.538-1.892a1.251,1.251,0,0,0-.2-.135L49.8,115.838a1.248,1.248,0,0,0-1.176,2.2l8.324,4.451a1.239,1.239,0,0,0,.2.135,3.531,3.531,0,0,1-3.331,6.227l-1.806-.966a1.242,1.242,0,0,0-.281-.105l-7.29-3.915a1.247,1.247,0,1,0-1.18,2.2l1.532.823a5.61,5.61,0,0,0-3.32-.172A5.861,5.861,0,0,0,34,120.292a5.934,5.934,0,0,0-.255-1.6,5.854,5.854,0,0,0-7.184-3.951,6.41,6.41,0,0,0-2.972-5.007,1.258,1.258,0,0,0-.175-.113,5.882,5.882,0,0,0-7.055,1.166,13.174,13.174,0,0,1,.509-3.876l7.121-22.072a21.433,21.433,0,0,0,6.8-.594c3.594-.715,7.008-1.394,11.419,1.01a33.11,33.11,0,0,0-2.889,2.609c-.761.769-1.543,1.537-2.306,2.287-2.782,2.733-5.185,5.093-5.872,6.768a1.247,1.247,0,0,0,.153,1.218c4.966,6.679,10.985,4.412,15.818,2.592,3.624-1.365,6.754-2.545,9.247-.571a1.241,1.241,0,0,0,.149.1c1.191.69,2.831,1.5,4.73,2.438,4.592,2.268,10.88,5.374,12.505,7.844a4.408,4.408,0,0,1-.263,5.059ZM75.63,108.9c-2.178-2.954-8.319-5.993-13.29-8.448-1.819-.9-3.4-1.677-4.51-2.317-3.581-2.768-7.657-1.234-11.6.251-4.673,1.759-8.737,3.289-12.449-1.127a46.54,46.54,0,0,1,4.977-5.334c.772-.758,1.562-1.534,2.331-2.312a28.01,28.01,0,0,1,3.968-3.374C51.342,81.921,56,83.869,60.114,85.59a15.769,15.769,0,0,0,5.827,1.627,6.038,6.038,0,0,0,2.127-.393L76.194,108.7Zm13.023.212-6.771,2.514a1.82,1.82,0,0,1-2.337-1.071L69.43,83.324A1.826,1.826,0,0,1,70.5,80.988l6.771-2.514a1.8,1.8,0,0,1,.627-.113,1.828,1.828,0,0,1,.762.168,1.8,1.8,0,0,1,.947,1.016L89.724,106.78a1.819,1.819,0,0,1-1.07,2.336Z" transform="translate(-0.001 -75.864)" fill="#fff"/>
</svg>
