<svg xmlns="http://www.w3.org/2000/svg" width="73" height="73" viewBox="0 0 73 73">
  <g id="research" transform="translate(-0.001)">
    <g id="Group_3387" data-name="Group 3387" transform="translate(0.001)">
      <g id="Group_3386" data-name="Group 3386">
        <path id="Path_13368" data-name="Path 13368" d="M56.272,0H4.563A4.563,4.563,0,0,0,0,4.562v36.5a4.563,4.563,0,0,0,4.562,4.563H24.334V42.583H4.563a1.521,1.521,0,0,1-1.521-1.521V4.562A1.521,1.521,0,0,1,4.563,3.042H56.272a1.521,1.521,0,0,1,1.521,1.521V31.937h3.042V4.562A4.563,4.563,0,0,0,56.272,0Z" transform="translate(-0.001)" fill="#667496"/>
      </g>
    </g>
    <g id="Group_3389" data-name="Group 3389" transform="translate(18.251 44.104)">
      <g id="Group_3388" data-name="Group 3388">
        <rect id="Rectangle_272" data-name="Rectangle 272" width="3.042" height="9.125" fill="#667496"/>
      </g>
    </g>
    <g id="Group_3391" data-name="Group 3391" transform="translate(6.084 31.937)">
      <g id="Group_3390" data-name="Group 3390">
        <path id="Path_13369" data-name="Path 13369" d="M47.231,228.563a1.521,1.521,0,0,1-1.521-1.521V224H42.668v3.042a4.563,4.563,0,0,0,4.563,4.563h3.042v-3.042Z" transform="translate(-42.668 -224)" fill="#667496"/>
      </g>
    </g>
    <g id="Group_3393" data-name="Group 3393" transform="translate(6.084 25.854)">
      <g id="Group_3392" data-name="Group 3392">
        <rect id="Rectangle_273" data-name="Rectangle 273" width="3.042" height="3.042" fill="#667496"/>
      </g>
    </g>
    <g id="Group_3395" data-name="Group 3395" transform="translate(27.374 27.373)">
      <g id="Group_3394" data-name="Group 3394">
        <path id="Path_13370" data-name="Path 13370" d="M220.2,196.83a16.524,16.524,0,1,0,0,23.368A16.524,16.524,0,0,0,220.2,196.83ZM208.5,222a13.482,13.482,0,1,1,13.487-13.478A13.482,13.482,0,0,1,208.5,222Z" transform="translate(-191.986 -191.989)" fill="#01d7ed"/>
      </g>
    </g>
    <g id="Group_3397" data-name="Group 3397" transform="translate(56.17 56.168)">
      <g id="Group_3396" data-name="Group 3396">
        <path id="Path_13371" data-name="Path 13371" d="M410.341,403.931l-9.546-9.543a1.52,1.52,0,0,0-2.15,0l-4.243,4.243a1.521,1.521,0,0,0,0,2.151l9.546,9.548a1.52,1.52,0,0,0,1.075.446h0a1.521,1.521,0,0,0,1.075-.45l4.243-4.243A1.521,1.521,0,0,0,410.341,403.931Zm-5.318,3.172-7.4-7.4,2.093-2.093,7.4,7.4Z" transform="translate(-393.956 -393.942)" fill="#01d7ed"/>
      </g>
    </g>
    <g id="Group_3399" data-name="Group 3399" transform="translate(53.432 53.43)">
      <g id="Group_3398" data-name="Group 3398" transform="translate(0 0)">
        <rect id="Rectangle_274" data-name="Rectangle 274" width="3.042" height="7.501" transform="translate(0 2.151) rotate(-45)" fill="#01d7ed"/>
      </g>
    </g>
    <g id="Group_3401" data-name="Group 3401" transform="translate(44.105 33.458)">
      <g id="Group_3400" data-name="Group 3400">
        <path id="Path_13372" data-name="Path 13372" d="M309.334,234.667v3.042a7.613,7.613,0,0,1,7.6,7.6h3.042A10.658,10.658,0,0,0,309.334,234.667Z" transform="translate(-309.334 -234.667)" fill="#01d7ed"/>
      </g>
    </g>
    <g id="Group_3403" data-name="Group 3403" transform="translate(15.209 51.708)">
      <g id="Group_3402" data-name="Group 3402">
        <rect id="Rectangle_275" data-name="Rectangle 275" width="12.167" height="3.042" fill="#667496"/>
      </g>
    </g>
    <g id="Group_3405" data-name="Group 3405" transform="translate(18.251 6.083)">
      <g id="Group_3404" data-name="Group 3404">
        <path id="Path_13373" data-name="Path 13373" d="M132.564,42.667a4.563,4.563,0,1,0,4.563,4.563A4.563,4.563,0,0,0,132.564,42.667Zm0,6.083a1.521,1.521,0,1,1,1.521-1.521A1.521,1.521,0,0,1,132.564,48.75Z" transform="translate(-128.001 -42.667)" fill="#667496"/>
      </g>
    </g>
    <g id="Group_3407" data-name="Group 3407" transform="translate(28.897 16.729)">
      <g id="Group_3406" data-name="Group 3406">
        <path id="Path_13374" data-name="Path 13374" d="M207.23,117.333a4.563,4.563,0,1,0,4.563,4.563A4.563,4.563,0,0,0,207.23,117.333Zm0,6.083a1.521,1.521,0,1,1,1.521-1.521A1.521,1.521,0,0,1,207.23,123.416Z" transform="translate(-202.668 -117.333)" fill="#667496"/>
      </g>
    </g>
    <g id="Group_3409" data-name="Group 3409" transform="translate(12.613 11.092)">
      <g id="Group_3408" data-name="Group 3408" transform="translate(0 0)">
        <rect id="Rectangle_276" data-name="Rectangle 276" width="10.754" height="3.042" transform="translate(0 7.604) rotate(-45)" fill="#667496"/>
      </g>
    </g>
    <g id="Group_3411" data-name="Group 3411" transform="translate(23.252 11.096)">
      <g id="Group_3410" data-name="Group 3410" transform="translate(0 0)">
        <rect id="Rectangle_277" data-name="Rectangle 277" width="3.042" height="10.754" transform="translate(0 2.151) rotate(-45)" fill="#667496"/>
      </g>
    </g>
    <g id="Group_3413" data-name="Group 3413" transform="translate(39.543 6.083)">
      <g id="Group_3412" data-name="Group 3412">
        <path id="Path_13375" data-name="Path 13375" d="M281.9,42.667a4.563,4.563,0,1,0,4.563,4.563A4.563,4.563,0,0,0,281.9,42.667Zm0,6.083a1.521,1.521,0,1,1,1.521-1.521A1.521,1.521,0,0,1,281.9,48.75Z" transform="translate(-277.334 -42.667)" fill="#667496"/>
      </g>
    </g>
    <g id="Group_3415" data-name="Group 3415" transform="translate(33.904 11.097)">
      <g id="Group_3414" data-name="Group 3414" transform="translate(0 0)">
        <rect id="Rectangle_278" data-name="Rectangle 278" width="10.754" height="3.042" transform="translate(0 7.604) rotate(-45)" fill="#667496"/>
      </g>
    </g>
  </g>
</svg>
