<svg xmlns="http://www.w3.org/2000/svg" width="60.907" height="75" viewBox="0 0 60.907 75">
  <g id="nurse_2_" data-name="nurse (2)" transform="translate(-48.103)">
    <g id="Group_289" data-name="Group 289" transform="translate(48.103 0)">
      <path id="Path_210" data-name="Path 210" d="M49.609,59.248A31.842,31.842,0,0,0,61.633,64.7a19.111,19.111,0,0,0-1.969,5.413,4.058,4.058,0,0,0,.849,3.379A4.1,4.1,0,0,0,63.695,75H88.272a1.1,1.1,0,1,0,0-2.2H63.695a1.911,1.911,0,0,1-1.483-.7,1.869,1.869,0,0,1-.392-1.556,17.1,17.1,0,0,1,5.752-9.7,11.349,11.349,0,0,0,21.97,0,17.1,17.1,0,0,1,5.752,9.7A1.869,1.869,0,0,1,94.9,72.1a1.911,1.911,0,0,1-1.483.7,1.1,1.1,0,0,0,0,2.2A4.1,4.1,0,0,0,96.6,73.494a4.059,4.059,0,0,0,.849-3.379A19.109,19.109,0,0,0,95.48,64.7,31.839,31.839,0,0,0,107.5,59.248a4.071,4.071,0,0,0,1.2-4.719,52.256,52.256,0,0,1-2.919-14.109,6.409,6.409,0,0,0-.288-7.673,26.878,26.878,0,0,0-9.141-19.818l1.169-3.47a4.112,4.112,0,0,0-1.32-4.511C93.9,3.1,88.533,0,78.557,0a37.576,37.576,0,0,0-9.964,1.232,1.1,1.1,0,1,0,.585,2.118A35.381,35.381,0,0,1,78.557,2.2c9.305,0,14.193,2.8,16.278,4.466a1.908,1.908,0,0,1,.61,2.094l-2.48,7.359a1.906,1.906,0,0,1-1.807,1.3h-25.2a1.906,1.906,0,0,1-1.807-1.3l-2.48-7.359a1.908,1.908,0,0,1,.61-2.094,15.424,15.424,0,0,1,2.352-1.531,1.1,1.1,0,0,0-1.037-1.937,17.626,17.626,0,0,0-2.688,1.753,4.112,4.112,0,0,0-1.32,4.511l1.169,3.47a26.877,26.877,0,0,0-9.141,19.819,6.408,6.408,0,0,0-.288,7.672,52.248,52.248,0,0,1-2.919,14.109,4.07,4.07,0,0,0,1.2,4.719Zm2.779-22.471a4.208,4.208,0,0,1,.841-2.528,16.7,16.7,0,0,0,2.355-.208,23.249,23.249,0,0,0,.206,6.881A4.232,4.232,0,0,1,52.388,36.777Zm5.23.014a21.1,21.1,0,0,1,.34-3.762c2.233-3.937,4.485-6.556,7.079-8.229a1.868,1.868,0,0,1,2.119.083c7.6,5.5,18.693,8.537,32.107,8.8a20.939,20.939,0,1,1-41.645,3.11Zm46.265-2.543a4.224,4.224,0,0,1-2.561,6.673,23.24,23.24,0,0,0,.2-6.91,17.208,17.208,0,0,0,2.358.237ZM78.557,67.142a9.214,9.214,0,0,1-9.038-7.72q.682-.427,1.407-.79a23.135,23.135,0,0,0,15.262,0q.725.363,1.407.79A9.214,9.214,0,0,1,78.557,67.142Zm27.566-9.6c-2.719,2.2-6.813,3.99-11.869,5.2a19.438,19.438,0,0,0-5.5-5.187,23.244,23.244,0,0,0,12.038-14.362,6.379,6.379,0,0,0,2.97-.885,51.172,51.172,0,0,0,2.906,13.043A1.886,1.886,0,0,1,106.123,57.539Zm-44.6-42.333.543,1.612a4.1,4.1,0,0,0,3.89,2.794h25.2a4.1,4.1,0,0,0,3.89-2.794l.543-1.612a24.677,24.677,0,0,1,7.69,16.811,15.1,15.1,0,0,1-2.8-.479l-.021,0c-.031-.008-.064-.014-.1-.019l-.028,0a1.067,1.067,0,0,0-.136-.01c-16.89-.169-26.592-4.66-31.756-8.4a4.052,4.052,0,0,0-4.6-.149c-2.84,1.832-5.275,4.607-7.641,8.713a12.064,12.064,0,0,1-2.373.361,24.677,24.677,0,0,1,7.691-16.821ZM50.447,55.35a51.181,51.181,0,0,0,2.906-13.043,6.376,6.376,0,0,0,2.97.885A23.244,23.244,0,0,0,68.36,57.554a19.441,19.441,0,0,0-5.5,5.187c-5.057-1.213-9.15-3.006-11.869-5.2a1.885,1.885,0,0,1-.544-2.189Z" transform="translate(-48.103 0)" fill="#fff"/>
      <path id="Path_211" data-name="Path 211" d="M232.4,43.572a1.1,1.1,0,0,0-1.1,1.1v1.854h-1.854a1.1,1.1,0,0,0,0,2.2H231.3v1.854a1.1,1.1,0,1,0,2.2,0V48.722h1.854a1.1,1.1,0,1,0,0-2.2H233.5V44.671A1.1,1.1,0,0,0,232.4,43.572Z" transform="translate(-201.943 -37.189)" fill="#01d7ed"/>
      <g id="Group_288" data-name="Group 288" transform="translate(20.207 35.526)">
        <path id="Path_212" data-name="Path 212" d="M187.15,246.481a1.1,1.1,0,0,0,1.1-1.1v-1.758a1.1,1.1,0,1,0-2.2,0v1.758A1.1,1.1,0,0,0,187.15,246.481Z" transform="translate(-186.051 -242.526)" fill="#fff"/>
        <path id="Path_213" data-name="Path 213" d="M312.047,246.481a1.1,1.1,0,0,0,1.1-1.1v-1.758a1.1,1.1,0,1,0-2.2,0v1.758A1.1,1.1,0,0,0,312.047,246.481Z" transform="translate(-292.653 -242.526)" fill="#fff"/>
        <path id="Path_214" data-name="Path 214" d="M235.545,257.465a4.3,4.3,0,0,0,3.24-1.476,1.1,1.1,0,0,0-1.657-1.443,2.1,2.1,0,0,1-3.167,0,1.1,1.1,0,0,0-1.657,1.443A4.3,4.3,0,0,0,235.545,257.465Z" transform="translate(-225.299 -252.464)" fill="#fff"/>
      </g>
    </g>
  </g>
</svg>
