<svg id="nursing-home" xmlns="http://www.w3.org/2000/svg" width="71.467" height="67" viewBox="0 0 71.467 67">
  <path id="Path_196" data-name="Path 196" d="M70.933,23.381,36.316,2.164a1.117,1.117,0,0,0-1.166,0L.534,23.381A1.117,1.117,0,0,0,.16,24.908l3.35,5.583a1.117,1.117,0,0,0,1.538.379L7.817,29.19V61.183A7.827,7.827,0,0,0,15.633,69H31.267a1.117,1.117,0,1,0,0-2.233H15.633a5.59,5.59,0,0,1-5.583-5.583V27.833L35.733,12.24,61.417,27.833v33.35a5.59,5.59,0,0,1-5.583,5.583H40.2A1.117,1.117,0,0,0,40.2,69H55.833a7.827,7.827,0,0,0,7.817-7.817V29.19l2.769,1.675a1.117,1.117,0,0,0,.581.169A1.15,1.15,0,0,0,67.268,31a1.117,1.117,0,0,0,.689-.509l3.35-5.583a1.117,1.117,0,0,0-.374-1.528Zm-4.313,5L36.313,9.98a1.117,1.117,0,0,0-1.159,0L8.354,26.25h0L4.846,28.379l-2.2-3.672L35.733,4.427l33.09,20.281Z" transform="translate(0 -2)" fill="#667496"/>
  <path id="Path_197" data-name="Path 197" d="M44.481,38.543a17.8,17.8,0,0,0,1.536-7.237,9.58,9.58,0,0,0-2.543-6.542A8.329,8.329,0,0,0,37.328,22a8.433,8.433,0,0,0-6.061,2.753l-1.759,1.361-1.759-1.362a9.029,9.029,0,0,0-2.73-1.993A7.82,7.82,0,0,0,21.689,22a8.329,8.329,0,0,0-6.146,2.764A9.58,9.58,0,0,0,13,31.306a17.162,17.162,0,0,0,5.862,13.057l10.079,8.706a.869.869,0,0,0,1.135,0l10.079-8.705a16.917,16.917,0,0,0,4.326-5.821ZM29.509,51.263,20,43.047a15.429,15.429,0,0,1-5.259-11.741,7.849,7.849,0,0,1,2.08-5.361,6.612,6.612,0,0,1,4.871-2.207,6.082,6.082,0,0,1,2.6.6,7.284,7.284,0,0,1,2.243,1.651c.032.035,2.45,1.912,2.45,1.912a.869.869,0,0,0,1.064,0s2.419-1.877,2.452-1.912a6.7,6.7,0,0,1,4.836-2.248A6.612,6.612,0,0,1,42.2,25.945a7.849,7.849,0,0,1,2.08,5.361A16.054,16.054,0,0,1,42.9,37.828a15.205,15.205,0,0,1-3.878,5.219Z" transform="translate(6.044 4.727)" fill="#667496"/>
  <path id="Path_198" data-name="Path 198" d="M37.771,35.343H34.3V31.859a.869.869,0,0,0-.869-.869H28.213a.869.869,0,0,0-.869.869v3.484H23.869a.869.869,0,0,0-.869.869v5.213a.869.869,0,0,0,.869.869h3.476V45.77a.869.869,0,0,0,.869.869h5.213a.869.869,0,0,0,.869-.869V42.294h3.475a.869.869,0,0,0,.869-.869V36.212A.869.869,0,0,0,37.771,35.343ZM36.9,40.556H33.426a.869.869,0,0,0-.869.869V44.9H29.082V41.425a.869.869,0,0,0-.869-.869H24.738V37.081h3.475a.869.869,0,0,0,.869-.869V32.728h3.476v3.484a.869.869,0,0,0,.869.869H36.9Z" transform="translate(4.732 3.548)" fill="#01d7ed"/>
</svg>
