<svg id="medical-kit" xmlns="http://www.w3.org/2000/svg" width="60" height="55.195" viewBox="0 0 60 55.195">
  <path id="Path_13315" data-name="Path 13315" d="M196.553,235.967h-2.542a2.639,2.639,0,0,1-2.637-2.636v-1.513H189.86a2.639,2.639,0,0,1-2.637-2.636v-2.539a2.64,2.64,0,0,1,2.637-2.636h1.515v-1.513a2.639,2.639,0,0,1,2.637-2.636h2.542a2.639,2.639,0,0,1,2.637,2.636v1.513h1.515a2.639,2.639,0,0,1,2.637,2.636v2.539a2.64,2.64,0,0,1-2.637,2.636H199.19v1.513A2.639,2.639,0,0,1,196.553,235.967Zm-6.693-9.615a.3.3,0,0,0-.293.292v2.539a.3.3,0,0,0,.293.292h2.687a1.172,1.172,0,0,1,1.172,1.172v2.685a.3.3,0,0,0,.293.292h2.542a.3.3,0,0,0,.293-.292v-2.685a1.172,1.172,0,0,1,1.172-1.172h2.687a.3.3,0,0,0,.293-.292v-2.539a.3.3,0,0,0-.293-.292h-2.687a1.173,1.173,0,0,1-1.172-1.172V222.5a.3.3,0,0,0-.293-.292h-2.542a.3.3,0,0,0-.293.292v2.685a1.173,1.173,0,0,1-1.172,1.172Zm0,0" transform="translate(-165.283 -194.094)" fill="#01d7ed"/>
  <path id="Path_13316" data-name="Path 13316" d="M55.273,12.56V9.267A1.172,1.172,0,0,0,54.1,8.1H46.378a1.172,1.172,0,0,0-1.172,1.172v3.176H42.84V7.392A7.4,7.4,0,0,0,35.439,0H24.557a7.4,7.4,0,0,0-7.4,7.392v5.051H14.791V9.267A1.172,1.172,0,0,0,13.618,8.1H5.9A1.172,1.172,0,0,0,4.727,9.267V12.56A5.905,5.905,0,0,0,0,18.338V49.3a5.9,5.9,0,0,0,5.9,5.9H25.3a1.172,1.172,0,0,0,0-2.344H5.9A3.557,3.557,0,0,1,2.344,49.3V45.126h17.2a15.406,15.406,0,0,0,20.889,0H57.656V49.3A3.557,3.557,0,0,1,54.1,52.851H34.649a1.172,1.172,0,1,0,0,2.344H54.1A5.9,5.9,0,0,0,60,49.3V18.338a5.906,5.906,0,0,0-4.727-5.777ZM42.657,25.073h15v3.66H44.526a15.506,15.506,0,0,0-1.869-3.66Zm2.493,6H57.656v5.7H45.11a15.271,15.271,0,0,0,.039-5.7Zm2.4-20.637h5.379v2H47.55ZM19.5,7.392a5.056,5.056,0,0,1,5.053-5.048H35.44A5.058,5.058,0,0,1,40.5,7.392v5.051h-2.11V7.392A2.949,2.949,0,0,0,35.44,4.447H24.557a2.949,2.949,0,0,0-2.946,2.945v5.051H19.5Zm4.451,4.815V7.392a.617.617,0,0,1,.6-.6H35.44a.617.617,0,0,1,.6.6v4.815ZM7.071,10.44h5.376v2H7.071ZM5.9,14.787H54.1a3.557,3.557,0,0,1,3.555,3.55v4.391H40.664a15.384,15.384,0,0,0-21.329,0H2.344V18.338A3.557,3.557,0,0,1,5.9,14.787ZM2.344,31.077h12.5a15.283,15.283,0,0,0,.033,5.7H2.344Zm13.123-2.344H2.344v-3.66H17.331a15.245,15.245,0,0,0-1.864,3.66ZM2.344,39.122h13.2a15.509,15.509,0,0,0,1.372,2.8c.181.293.373.577.571.855H2.344Zm24.673,7.394a12.975,12.975,0,0,1-6.107-3.327,1.121,1.121,0,0,0-.13-.13,13.195,13.195,0,0,1-3.251-5.365,1.2,1.2,0,0,0-.053-.172A13.054,13.054,0,1,1,42.709,36.8c-.063.267-.134.529-.212.788l-.011.035a13.076,13.076,0,0,1-15.469,8.9Zm15.5-3.735a15.251,15.251,0,0,0,1.94-3.659h13.2v3.659Zm0,0" transform="translate(0 0)" fill="#667496"/>
  <path id="Path_13317" data-name="Path 13317" d="M247,451h-.02a1.172,1.172,0,1,0,0,2.344H247A1.172,1.172,0,1,0,247,451Zm0,0" transform="translate(-217.006 -398.145)"/>
</svg>
