<svg xmlns="http://www.w3.org/2000/svg" xmlns:xlink="http://www.w3.org/1999/xlink" width="64.609" height="62.273" viewBox="0 0 64.609 62.273">
  <defs>
    <clipPath id="clip-path">
      <rect id="Rectangle_158" data-name="Rectangle 158" width="64.609" height="62.273" transform="translate(0 0)" fill="none"/>
    </clipPath>
  </defs>
  <g id="Group_3163" data-name="Group 3163" transform="translate(0 0)" clip-path="url(#clip-path)">
    <path id="Path_13332" data-name="Path 13332" d="M64.6,22.7a12.52,12.52,0,0,0-8.066-10.413,6.941,6.941,0,1,0-8.845,0,12.51,12.51,0,0,0-6.784,6.087,12.528,12.528,0,0,0-4-2.432,6.941,6.941,0,1,0-8.844,0,12.528,12.528,0,0,0-4,2.432,12.507,12.507,0,0,0-6.788-6.087,6.941,6.941,0,1,0-8.845,0A12.517,12.517,0,0,0,.369,22.7a1.2,1.2,0,0,0,1.068,1.318,1,1,0,0,0,.122.007H20.477A12.676,12.676,0,0,0,20,26.354a1.2,1.2,0,0,0,1.068,1.318,1,1,0,0,0,.122.007H43.777a1.2,1.2,0,0,0,1.2-1.2c0-.041,0-.082-.007-.122a12.676,12.676,0,0,0-.473-2.329H63.411a1.2,1.2,0,0,0,1.2-1.2c0-.041,0-.082-.007-.123ZM47.569,6.943a4.547,4.547,0,1,1,4.547,4.548,4.547,4.547,0,0,1-4.547-4.548M27.938,10.6a4.547,4.547,0,1,1,4.547,4.547A4.547,4.547,0,0,1,27.938,10.6M8.307,6.943a4.547,4.547,0,1,1,4.546,4.548A4.547,4.547,0,0,1,8.307,6.943ZM21.485,21.628H2.977a10.166,10.166,0,0,1,19.332-1.3,12.552,12.552,0,0,0-.824,1.3m1.125,3.654a10.168,10.168,0,0,1,19.749,0Zm20.874-3.654a12.4,12.4,0,0,0-.826-1.3,10.355,10.355,0,0,1,4.136-4.944,9.9,9.9,0,0,1,5.322-1.5,10.138,10.138,0,0,1,9.875,7.743Z" fill="#01d7ed"/>
    <path id="Path_13333" data-name="Path 13333" d="M63.919,37.1c-.63-1.051-3.208-4.176-9.95-.25h0l-11.66,6.791a6.385,6.385,0,0,1-1.386.608,4.941,4.941,0,0,0,.359-.949,4.584,4.584,0,0,0-.512-3.551,4.228,4.228,0,0,0-2.718-1.964A86.266,86.266,0,0,1,28.5,34.914c-.845-.292-1.644-.568-2.326-.789-3.046-.988-5.784.226-8.061,1.545L9.586,40.61l-.867-1.532a2.919,2.919,0,0,0-3.971-1.1L1.477,39.829A2.919,2.919,0,0,0,.377,43.8L9.995,60.794a2.894,2.894,0,0,0,1.758,1.371,2.94,2.94,0,0,0,.786.108,2.892,2.892,0,0,0,1.427-.378l3.271-1.852a2.917,2.917,0,0,0,1.1-3.971l-.782-1.382,1.779-1.027L34.2,57.647a9.59,9.59,0,0,0,2.493.336,8.934,8.934,0,0,0,4.728-1.359L62.581,43.6a4.93,4.93,0,0,0,1.338-6.5M16.057,57.962l-3.271,1.852a.524.524,0,0,1-.708-.2L2.46,42.621a.524.524,0,0,1,.2-.708l3.271-1.852a.5.5,0,0,1,.251-.066.535.535,0,0,1,.143.019.518.518,0,0,1,.314.243l9.618,16.994a.526.526,0,0,1-.2.711m45.27-16.406v.006L40.168,54.585a6.585,6.585,0,0,1-5.346.749L19.475,51.222a1.2,1.2,0,0,0-.908.12l-2.191,1.265-5.61-9.912,8.553-4.952c1.912-1.107,3.977-2.036,6.123-1.339.661.214,1.449.487,2.284.775a88.309,88.309,0,0,0,9.817,2.94,1.852,1.852,0,0,1,1.185.87,2.176,2.176,0,0,1,.245,1.687,2.069,2.069,0,0,1-2.514,1.481c-1.708-.352-3.333-.816-5.054-1.307-.82-.234-1.667-.476-2.539-.71a1.2,1.2,0,0,0-.62,2.313c.853.228,1.691.468,2.5.7,1.783.509,3.466.99,5.283,1.361l1.5.245a8.715,8.715,0,0,0,5.989-1.053l11.66-6.791c3.269-1.9,5.77-2.124,6.69-.589a2.548,2.548,0,0,1-.541,3.23" fill="#667496"/>
  </g>
</svg>
