<svg id="nurse" xmlns="http://www.w3.org/2000/svg" width="68.256" height="68.256" viewBox="0 0 68.256 68.256">
  <path id="Path_13318" data-name="Path 13318" d="M46.642,344H45.5a1.138,1.138,0,0,0-.8.333L34.128,354.9,23.556,344.333a1.138,1.138,0,0,0-.8-.333l-1.251.006C7.636,345.393,0,351.849,0,362.2a1.138,1.138,0,0,0,2.275,0c0-10.18,8.2-14.094,16.14-15.486l-1.232,2.464a1.137,1.137,0,0,0,.51,1.526l3.921,1.96v3.847a1.138,1.138,0,0,0,.811,1.09l10.565,3.17V362.2a1.138,1.138,0,0,0,2.275,0v-1.429l10.565-3.17a1.138,1.138,0,0,0,.811-1.09v-3.847l3.921-1.955a1.137,1.137,0,0,0,.51-1.526l-1.228-2.455c7.99,1.4,16.136,5.328,16.136,15.471a1.138,1.138,0,1,0,2.275,0c0-10.352-7.635-16.809-21.614-18.2ZM23.89,355.667v-3.7a1.137,1.137,0,0,0-.629-1.024l-3.532-1.766,1.425-2.844c.153-.017.309-.039.462-.054h.667L32.99,356.985V358.4Zm24.638-6.484L45,350.948a1.137,1.137,0,0,0-.629,1.015v3.7l-9.1,2.73v-1.413l10.713-10.709h.549c.191.019.387.047.579.068Zm0,0" transform="translate(0 -295.083)" fill="#667496"/>
  <path id="Path_13319" data-name="Path 13319" d="M81.8,39.577A31.052,31.052,0,0,0,96.149,45.36v3.557a1.138,1.138,0,1,0,2.275,0V45.433a11.431,11.431,0,0,0,4.55,1.209,11.431,11.431,0,0,0,4.55-1.209v3.484a1.138,1.138,0,1,0,2.275,0V45.36a31.05,31.05,0,0,0,14.352-5.785c2.695-2.106,1.873-10.16-2.668-26.11-.1-.366-.187-.657-.249-.88l2.136-5.336a1.138,1.138,0,0,0-.488-1.41C114.4.994,108.789,0,102.975,0S91.55.994,83.067,5.839a1.138,1.138,0,0,0-.493,1.41l2.135,5.336c-.062.228-.146.514-.249.88-4.536,15.95-5.358,24-2.662,26.111Zm8.663-7.723V25.776a59.669,59.669,0,0,0,17.974-6.1c1.318,1.479,4.287,4.583,7.053,5.888v6.293c0,6.721-8.393,12.514-12.514,12.514S90.461,38.575,90.461,31.854Zm-4.55-3.413a2.275,2.275,0,0,1,2.275-2.275v4.55A2.275,2.275,0,0,1,85.911,28.441Zm31.853-2.275a2.275,2.275,0,0,1,0,4.55ZM102.975,2.276c5.255,0,10.352.876,17.913,5.053l-3.693,9.221c-4.54-2.356-11.653-2.9-14.22-2.9s-9.68.543-14.22,2.9L85.062,7.329c7.56-4.177,12.658-5.053,17.913-5.053ZM87.129,18.624a1.138,1.138,0,0,0,1.7.52c3.464-2.344,10.518-3.217,14.151-3.217s10.687.874,14.151,3.217a1.138,1.138,0,0,0,1.7-.52l1.024-2.569c5.04,18.274,3.513,21.251,2.9,21.728a28.91,28.91,0,0,1-10.9,4.908c2.958-2.43,5.419-5.815,5.832-9.7h.083a4.55,4.55,0,1,0,0-9.1c-2.094,0-6.158-3.936-8.227-6.417a1.138,1.138,0,0,0-1.5-.218c-.066.044-6.826,4.45-20.034,6.652a4.543,4.543,0,1,0,.188,9.085h.082c.414,3.885,2.872,7.271,5.833,9.7a28.929,28.929,0,0,1-10.9-4.909c-.61-.477-2.138-3.453,2.9-21.728Zm0,0" transform="translate(-68.847 -0.001)" fill="#667496"/>
  <path id="Path_13320" data-name="Path 13320" d="M215.059,256.1a4.58,4.58,0,0,1-5.4,0,1.137,1.137,0,1,0-1.424,1.772,6.792,6.792,0,0,0,8.25,0,1.137,1.137,0,1,0-1.424-1.772Zm0,0" transform="translate(-178.23 -219.443)" fill="#667496"/>
  <path id="Path_13321" data-name="Path 13321" d="M276.55,186.275A2.275,2.275,0,1,1,274.275,184,2.275,2.275,0,0,1,276.55,186.275Zm0,0" transform="translate(-233.322 -157.835)" fill="#667496"/>
  <path id="Path_13322" data-name="Path 13322" d="M180.55,186.275A2.275,2.275,0,1,1,178.275,184,2.275,2.275,0,0,1,180.55,186.275Zm0,0" transform="translate(-150.973 -157.835)" fill="#667496"/>
  <path id="Path_13323" data-name="Path 13323" d="M217.138,36.55h1.138v1.138a1.138,1.138,0,0,0,2.275,0V36.55h1.138a1.138,1.138,0,0,0,0-2.275H220.55V33.138a1.138,1.138,0,0,0-2.275,0v1.138h-1.138a1.138,1.138,0,1,0,0,2.275Zm0,0" transform="translate(-185.285 -27.45)" fill="#01d7ed"/>
</svg>
