<svg xmlns="http://www.w3.org/2000/svg" xmlns:xlink="http://www.w3.org/1999/xlink" width="59.808" height="70.239" viewBox="0 0 59.808 70.239">
  <defs>
    <clipPath id="clip-path">
      <rect id="Rectangle_157" data-name="Rectangle 157" width="59.808" height="70.239" transform="translate(0 0)" fill="none"/>
    </clipPath>
  </defs>
  <g id="Group_3161" data-name="Group 3161" transform="translate(0 0)" clip-path="url(#clip-path)">
    <path id="Path_13325" data-name="Path 13325" d="M22.164,22.136a.956.956,0,0,0-.957.957v3.959a1.746,1.746,0,0,0,1.754,1.735h1.71a.957.957,0,0,0,0-1.914h-1.55v-3.78a.956.956,0,0,0-.957-.957" fill="#667496"/>
    <path id="Path_13326" data-name="Path 13326" d="M14.832,21.339v2.812a.957.957,0,1,0,1.914,0V21.34a.957.957,0,1,0-1.914,0Z" fill="#667496"/>
    <path id="Path_13327" data-name="Path 13327" d="M29.992,21.339v2.812a.957.957,0,1,0,1.914,0V21.34a.957.957,0,1,0-1.914,0Z" fill="#667496"/>
    <path id="Path_13328" data-name="Path 13328" d="M19.359,31.268a.958.958,0,1,0-1.741.8,6.327,6.327,0,0,0,11.5,0,.958.958,0,1,0-1.741-.8,4.413,4.413,0,0,1-8.022,0Z" fill="#667496"/>
    <path id="Path_13329" data-name="Path 13329" d="M28.281,43.41V41.029a13.5,13.5,0,0,0,4.6-2.089.957.957,0,0,0-1.1-1.564,11.658,11.658,0,0,1-6.759,2.129h-3.3A11.417,11.417,0,0,1,10.175,28.248v-8.1a8.111,8.111,0,0,1,3.709-7.27c2.236-1.449,5.516-2.215,9.487-2.215s7.251.766,9.487,2.215a8.111,8.111,0,0,1,3.709,7.27v8.1a11.007,11.007,0,0,1-1.894,6.18.957.957,0,0,0,1.522,1.161.867.867,0,0,0,.06-.089A12.939,12.939,0,0,0,38.184,31h1.271a3.518,3.518,0,0,0,3.557-3.471V24.482a3.519,3.519,0,0,0-3.557-3.472h-.972V10.27a6.882,6.882,0,0,0-9.647-6.278C27.474,1.436,24.837,0,21.229,0H18.068A9.8,9.8,0,0,0,8.261,9.773V21.01H7.289a3.52,3.52,0,0,0-3.558,3.471v3.044A3.521,3.521,0,0,0,7.289,31H8.555a13.349,13.349,0,0,0,9.9,10.031v2.384H7.222A7.155,7.155,0,0,0,0,50.484v9.035a1.777,1.777,0,0,0,1.781,1.769H8.339a.957.957,0,1,0,0-1.914H1.914V50.48a5.239,5.239,0,0,1,5.308-5.155h8.7a7.671,7.671,0,0,0,14.9,0h2.286c.241-.57.539-1.257.842-1.915Zm10.2-15.161V22.925h.975A1.6,1.6,0,0,1,41.1,24.481h0v3.044a1.6,1.6,0,0,1-1.642,1.557h-1c.014-.277.025-.555.025-.834M31.6,5.326h0a4.96,4.96,0,0,1,4.967,4.944v3.48A10.06,10.06,0,0,0,33.9,11.272a14.261,14.261,0,0,0-4.024-1.745V8.635a11.136,11.136,0,0,0-.348-2.856A4.944,4.944,0,0,1,31.6,5.326M10.175,9.773a7.885,7.885,0,0,1,7.893-7.859h3.161c4.341,0,6.731,2.387,6.731,6.721v.471a27.564,27.564,0,0,0-4.59-.358c-4.4,0-7.945.849-10.528,2.523a10.045,10.045,0,0,0-2.667,2.479ZM7.289,29.083a1.6,1.6,0,0,1-1.644-1.555V24.482a1.6,1.6,0,0,1,1.642-1.557h.974v5.324c0,.28.01.558.028.834ZM23.372,49.254h0A5.7,5.7,0,0,1,17.9,45.325h1.515a.956.956,0,0,0,.957-.957V41.354q.665.064,1.348.066h3.3c.453,0,.9-.024,1.348-.067v3.016a.956.956,0,0,0,.957.957h1.515a5.7,5.7,0,0,1-5.469,3.928" fill="#667496"/>
    <path id="Path_13330" data-name="Path 13330" d="M59.374,43.2,56.55,40.61a1.34,1.34,0,0,0-.9-.351h-.059a1.331,1.331,0,0,0-.929.434l-1.579,1.725a13.034,13.034,0,0,0-17.732.915c-.568.625-1.6,1.992-1.6,1.992A12.912,12.912,0,0,0,33.588,59.1c.523.779,1.667,2.182,1.667,2.182q.163.171.33.335a13.032,13.032,0,0,0,22.144-9.266,12.851,12.851,0,0,0-.807-4.5l2.533-2.764a1.33,1.33,0,0,0,.35-.964h0a1.331,1.331,0,0,0-.434-.929M48.755,53.947l-3.04,3.32a1.339,1.339,0,0,1-1.893.087q-.045-.042-.087-.087L37.794,50.72l1.984-1.8,4.059,4.47a1.211,1.211,0,0,0,1.712.079c.028-.025.054-.052.079-.079l2.612-2.853a.957.957,0,0,0-1.412-1.292s-.587,2.8-2.092,2.285-3.928-4.325-3.928-4.325a1.34,1.34,0,0,0-1.893-.091l-2.833,2.573a1.338,1.338,0,0,0-.093,1.891v0l6.327,6.968a3.253,3.253,0,0,0,4.595.223c.075-.068.146-.139.214-.213l8.307-9.075a10.986,10.986,0,0,1,.382,2.869,11.111,11.111,0,1,1-4.032-8.519l-1.919,2.1a.957.957,0,0,0,1.412,1.292l4.4-4.812,1.979,1.807Z" fill="#01d7ed"/>
    <path id="Path_13331" data-name="Path 13331" d="M32.748,59.369H11.806a.957.957,0,0,0,0,1.914H34.255s-1.144-1.4-1.667-2.182c.055.089.1.18.16.268" fill="#4f6185"/>
  </g>
</svg>
