<svg xmlns="http://www.w3.org/2000/svg" width="78.933" height="74" viewBox="0 0 78.933 74">
  <g id="nursing-home" transform="translate(0 -2)">
    <path id="Path_196" data-name="Path 196" d="M78.344,25.615,40.11,2.181a1.233,1.233,0,0,0-1.288,0L.59,25.615A1.233,1.233,0,0,0,.176,27.3l3.7,6.167a1.233,1.233,0,0,0,1.7.418L8.633,32.03V67.367A8.644,8.644,0,0,0,17.267,76H34.533a1.233,1.233,0,0,0,0-2.467H17.267A6.174,6.174,0,0,1,11.1,67.367V30.532L39.467,13.31,67.833,30.532V67.367a6.174,6.174,0,0,1-6.167,6.167H44.4A1.233,1.233,0,0,0,44.4,76H61.667A8.644,8.644,0,0,0,70.3,67.367V32.03l3.059,1.85a1.233,1.233,0,0,0,.641.186,1.27,1.27,0,0,0,.3-.036,1.233,1.233,0,0,0,.761-.562l3.7-6.167a1.233,1.233,0,0,0-.413-1.687Zm-4.763,5.52L40.107,10.813a1.233,1.233,0,0,0-1.28,0l-29.6,17.97h0L5.353,31.135,2.919,27.08,39.467,4.68l36.547,22.4Z" transform="translate(0 0)" fill="#fff"/>
    <path id="Path_197" data-name="Path 197" d="M47.77,40.271a19.657,19.657,0,0,0,1.7-7.993,10.581,10.581,0,0,0-2.809-7.225A9.2,9.2,0,0,0,39.87,22a9.314,9.314,0,0,0-6.695,3.041l-1.942,1.5-1.943-1.5a9.973,9.973,0,0,0-3.015-2.2A8.637,8.637,0,0,0,22.6,22a9.2,9.2,0,0,0-6.788,3.053A10.581,10.581,0,0,0,13,32.278,18.955,18.955,0,0,0,19.475,46.7l11.132,9.616a.96.96,0,0,0,1.253,0L42.992,46.7a18.684,18.684,0,0,0,4.778-6.429ZM31.233,54.32,20.728,45.246a17.041,17.041,0,0,1-5.809-12.968,8.669,8.669,0,0,1,2.3-5.921,7.3,7.3,0,0,1,5.38-2.438,6.718,6.718,0,0,1,2.866.659A8.045,8.045,0,0,1,27.94,26.4c.036.038,2.706,2.111,2.706,2.111a.96.96,0,0,0,1.175,0s2.672-2.073,2.708-2.111a7.4,7.4,0,0,1,5.341-2.483,7.3,7.3,0,0,1,5.38,2.438,8.669,8.669,0,0,1,2.3,5.921,17.731,17.731,0,0,1-1.527,7.2,16.794,16.794,0,0,1-4.283,5.765Z" transform="translate(8.033 9.519)" fill="#fff"/>
    <path id="Path_198" data-name="Path 198" d="M39.314,35.8H35.475V31.95a.96.96,0,0,0-.96-.96H28.758a.96.96,0,0,0-.96.96V35.8H23.96a.96.96,0,0,0-.96.96v5.758a.96.96,0,0,0,.96.96H27.8v3.839a.96.96,0,0,0,.96.96h5.758a.96.96,0,0,0,.96-.96V43.475h3.839a.96.96,0,0,0,.96-.96V36.758A.96.96,0,0,0,39.314,35.8Zm-.96,5.758H34.516a.96.96,0,0,0-.96.96v3.839H29.718V42.515a.96.96,0,0,0-.96-.96H24.919V37.717h3.839a.96.96,0,0,0,.96-.96V32.909h3.839v3.848a.96.96,0,0,0,.96.96h3.839Z" transform="translate(7.63 9.157)" fill="#01d7ed"/>
  </g>
</svg>
