<svg xmlns="http://www.w3.org/2000/svg" width="67.711" height="58.853" viewBox="0 0 67.711 58.853">
  <g id="first-aid-kit" transform="translate(0 -33.491)">
    <path id="Path_199" data-name="Path 199" d="M186.481,44.7a.992.992,0,0,1-.992-.992V40.489a5.02,5.02,0,0,0-5.014-5.014h-10.52a5.02,5.02,0,0,0-5.014,5.014v3.224a.992.992,0,1,1-1.984,0V40.489a7.006,7.006,0,0,1,7-7h10.52a7.006,7.006,0,0,1,7,7v3.224A.992.992,0,0,1,186.481,44.7Z" transform="translate(-141.407)" fill="#fff"/>
    <path id="Path_200" data-name="Path 200" d="M208.546,70.737a.992.992,0,0,1-.992-.992V66.521a1.048,1.048,0,0,0-1.046-1.046h-10.52a1.048,1.048,0,0,0-1.046,1.046v3.224a.992.992,0,1,1-1.984,0V66.521a3.034,3.034,0,0,1,3.03-3.03h10.52a3.034,3.034,0,0,1,3.03,3.03v3.224A.992.992,0,0,1,208.546,70.737Z" transform="translate(-167.439 -26.033)" fill="#fff"/>
    <g id="Group_268" data-name="Group 268" transform="translate(0 40.958)">
      <path id="Path_201" data-name="Path 201" d="M49.467,153.565H6.479A6.487,6.487,0,0,1,0,147.086V110.522a6.487,6.487,0,0,1,6.479-6.479H8.321a.992.992,0,0,1,0,1.984H6.479a4.5,4.5,0,0,0-4.5,4.5v36.564a4.5,4.5,0,0,0,4.5,4.5H49.467a.992.992,0,1,1,0,1.984Z" transform="translate(0 -102.18)" fill="#fff"/>
      <path id="Path_202" data-name="Path 202" d="M405.67,153.566h-7.746a.992.992,0,0,1,0-1.984h7.746a4.5,4.5,0,0,0,4.5-4.5V110.523a4.5,4.5,0,0,0-4.5-4.5h-1.783a.992.992,0,0,1,0-1.984h1.783a6.487,6.487,0,0,1,6.479,6.479v36.564A6.487,6.487,0,0,1,405.67,153.566Z" transform="translate(-344.439 -102.181)" fill="#fff"/>
      <path id="Line_1" data-name="Line 1" d="M24.815-5.516H-6.508A.992.992,0,0,1-7.5-6.508.992.992,0,0,1-6.508-7.5H24.815a.992.992,0,0,1,.992.992A.992.992,0,0,1,24.815-5.516Z" transform="translate(24.847 9.363)" fill="#fff"/>
      <g id="Group_267" data-name="Group 267" transform="translate(7.358 0)">
        <path id="Path_203" data-name="Path 203" d="M64.253,95.935H58.631a2.99,2.99,0,1,1,0-5.98h5.623a2.99,2.99,0,0,1,0,5.98Zm-5.623-4a1.006,1.006,0,1,0,0,2.012h5.623a1.006,1.006,0,0,0,0-2.012Z" transform="translate(-55.641 -89.955)" fill="#fff"/>
        <path id="Path_204" data-name="Path 204" d="M377.239,95.935h-5.623a2.99,2.99,0,0,1,0-5.98h5.623a2.99,2.99,0,0,1,0,5.98Zm-5.623-4a1.006,1.006,0,0,0,0,2.012h5.623a1.006,1.006,0,0,0,0-2.012Z" transform="translate(-327.236 -89.955)" fill="#fff"/>
      </g>
      <path id="Path_205" data-name="Path 205" d="M142.8,195.332a17.251,17.251,0,0,1-11.4-30.2.992.992,0,1,1,1.311,1.489,15.218,15.218,0,1,0,2.811-1.964.992.992,0,1,1-.947-1.743,17.253,17.253,0,1,1,8.224,32.42Z" transform="translate(-108.948 -151.456)" fill="#fff"/>
      <path id="Path_206" data-name="Path 206" d="M194.019,222.3h4.259a1.689,1.689,0,0,1,1.687,1.687v3.618h3.618a1.689,1.689,0,0,1,1.687,1.687v4.259a1.689,1.689,0,0,1-1.687,1.687h-3.618v3.618a1.689,1.689,0,0,1-1.687,1.687h-4.259a1.689,1.689,0,0,1-1.687-1.687V235.24h-3.618a1.689,1.689,0,0,1-1.687-1.687v-4.259a1.689,1.689,0,0,1,1.687-1.687h3.618v-3.618A1.689,1.689,0,0,1,194.019,222.3Zm3.962,1.984h-3.666V228.6a.992.992,0,0,1-.992.992h-4.313v3.666h4.313a.992.992,0,0,1,.992.992v4.313h3.666v-4.313a.992.992,0,0,1,.992-.992h4.313v-3.666h-4.313a.992.992,0,0,1-.992-.992Z" transform="translate(-162.293 -204.799)" fill="#01d7ed"/>
    </g>
  </g>
</svg>
