<svg xmlns="http://www.w3.org/2000/svg" width="49.759" height="75.976" viewBox="0 0 49.759 75.976">
  <g id="nurse_1_" data-name="nurse (1)" transform="translate(-32.259 -11.524)">
    <g id="XMLID_2566_" transform="translate(32.759 14.997)">
      <g id="XMLID_2585_" transform="translate(7.778 12.975)">
        <g id="Group_229" data-name="Group 229">
          <g id="Group_228" data-name="Group 228">
            <path id="Path_172" data-name="Path 172" d="M61.24,79.434a13.461,13.461,0,0,1-9.923-3.9C44.5,68.66,44.595,54.574,44.654,47c.007-.6.007-1.159.007-1.663a12.483,12.483,0,0,1,4.988-10.407.553.553,0,0,1,.334-.111H72.5a.568.568,0,0,1,.334.111A12.475,12.475,0,0,1,77.82,45.339C77.82,67.325,71.935,79.434,61.24,79.434ZM50.172,35.926a11.416,11.416,0,0,0-4.4,9.412c0,.5-.007,1.067-.007,1.669-.052,7.41-.151,21.2,6.343,27.74a12.365,12.365,0,0,0,9.138,3.574c13.464,0,15.474-20.671,15.474-32.989a11.4,11.4,0,0,0-4.405-9.412H50.172Z" transform="translate(-44.642 -34.82)" fill="#fff" stroke="#707070" stroke-width="1"/>
          </g>
        </g>
      </g>
      <g id="XMLID_2581_" transform="translate(37.703 61.085)">
        <g id="Group_237" data-name="Group 237" transform="translate(0)">
          <g id="Group_236" data-name="Group 236">
            <path id="Path_176" data-name="Path 176" d="M98.836,119.231h-7.92a.556.556,0,0,1-.556-.556V111.1a2.784,2.784,0,0,1,2.782-2.782h7.684a.559.559,0,0,1,.556.569,31.54,31.54,0,0,1-2.029,9.975A.543.543,0,0,1,98.836,119.231Zm-7.364-1.106H98.45a30.6,30.6,0,0,0,1.807-8.692H93.148a1.673,1.673,0,0,0-1.669,1.676v7.017Z" transform="translate(-90.36 -108.32)" fill="#fff" stroke="#707070" stroke-width="1"/>
          </g>
        </g>
      </g>
      <g id="XMLID_2580_" transform="translate(0 61.091)">
        <g id="Group_239" data-name="Group 239">
          <g id="Group_238" data-name="Group 238">
            <path id="Path_177" data-name="Path 177" d="M43.226,119.235h-7.92a.552.552,0,0,1-.517-.36A31.541,31.541,0,0,1,32.76,108.9a.533.533,0,0,1,.157-.4.571.571,0,0,1,.4-.17H41a2.784,2.784,0,0,1,2.782,2.782v7.573a.55.55,0,0,1-.556.55ZM35.7,118.129H42.67v-7.023A1.678,1.678,0,0,0,41,109.43H33.892A30.369,30.369,0,0,0,35.7,118.129Z" transform="translate(-32.759 -108.33)" fill="#fff" stroke="#707070" stroke-width="1"/>
          </g>
        </g>
      </g>
      <g id="XMLID_2576_" transform="translate(0.014 42.063)">
        <g id="Group_247" data-name="Group 247">
          <g id="Group_246" data-name="Group 246">
            <path id="Path_181" data-name="Path 181" d="M78.946,109.2h-43.6a.546.546,0,0,1-.517-.36A31.471,31.471,0,0,1,32.78,98.026c0-8.45,4.359-14.335,12.607-17.018a25.467,25.467,0,0,1,3-.844,24.367,24.367,0,0,1,3.037-.543c.321-.052.615-.111.9-.17a1.382,1.382,0,0,1,.17-.013c1.447-.118,3.017-.177,4.628-.177a22.27,22.27,0,0,1,2.919.124c.576,0,1.224.059,1.82.118a4.862,4.862,0,0,1,1.06.124,22.806,22.806,0,0,1,2.991.543,23.241,23.241,0,0,1,2.965.851c8.26,2.6,12.639,8.483,12.639,17.012a31.465,31.465,0,0,1-2.049,10.807.576.576,0,0,1-.53.36Zm-43.214-1.106H78.559a30.128,30.128,0,0,0,1.852-10.067c0-8.11-4-13.484-11.893-15.965a22.747,22.747,0,0,0-2.867-.818,22.5,22.5,0,0,0-2.906-.524,4.262,4.262,0,0,0-.884-.118h-.118a16.937,16.937,0,0,0-1.78-.118,22.183,22.183,0,0,0-2.788-.118c-1.643,0-3.181.059-4.641.177-.295.052-.6.111-.962.17a24.6,24.6,0,0,0-2.926.524,25.263,25.263,0,0,0-2.906.812C37.859,84.608,33.88,89.982,33.88,98.019A30.135,30.135,0,0,0,35.732,108.093Z" transform="translate(-32.78 -79.26)" fill="#fff" stroke="#707070" stroke-width="1"/>
          </g>
        </g>
      </g>
      <g id="XMLID_2571_" transform="translate(6.4 -3)">
        <g id="Group_257" data-name="Group 257">
          <g id="Group_256" data-name="Group 256">
            <path id="Path_186" data-name="Path 186" d="M74.22,31.9H46.813a.552.552,0,0,1-.517-.36L42.67,22.022a3.343,3.343,0,0,1,1.977-4.084,44.1,44.1,0,0,1,31.667,0,3.4,3.4,0,0,1,2.062,4.039c-.007.02-.013.033-.02.052L74.73,31.546A.547.547,0,0,1,74.22,31.9ZM47.193,30.793h26.64l3.482-9.138a2.284,2.284,0,0,0-1.388-2.684,43.048,43.048,0,0,0-30.895,0,2.233,2.233,0,0,0-1.316,2.7Zm30.646-8.967h.013Z" transform="translate(-42.538 -14.998)" fill="#fff" stroke="#707070" stroke-width="1"/>
          </g>
        </g>
      </g>
      <g id="XMLID_2570_" transform="translate(18.825 -0.086)">
        <g id="Group_259" data-name="Group 259">
          <g id="Group_258" data-name="Group 258">
            <path id="Path_187" data-name="Path 187" d="M68.563,30.545H65.637a.556.556,0,0,1-.556-.556v-3h-3a.556.556,0,0,1-.556-.556v-2.86a.556.556,0,0,1,.556-.556h3v-3a.556.556,0,0,1,.556-.556h2.926a.556.556,0,0,1,.556.556v3h2.945a.556.556,0,0,1,.556.556v2.86a.556.556,0,0,1-.556.556H69.119v3A.556.556,0,0,1,68.563,30.545Zm-2.369-1.113h1.82v-3a.556.556,0,0,1,.556-.556h2.945V24.117H68.57a.556.556,0,0,1-.556-.556v-3h-1.82v3a.556.556,0,0,1-.556.556h-3v1.754h3a.556.556,0,0,1,.556.556Z" transform="translate(-61.52 -19.45)" fill="#01d7ed"/>
          </g>
        </g>
      </g>
      <g id="XMLID_2567_" transform="translate(10.755 17.596)">
        <g id="Group_265" data-name="Group 265" transform="translate(0 0)">
          <g id="Group_264" data-name="Group 264">
            <path id="Path_190" data-name="Path 190" d="M62.837,69.221c-7.534,0-13.647-11.474-13.647-18.962a12.727,12.727,0,0,1,.327-2.893.559.559,0,0,1,.641-.419,10.631,10.631,0,0,0,2.527.151,9.582,9.582,0,0,0,7.58-4.929.553.553,0,0,1,1.028.373,1.621,1.621,0,0,0,0,.615,9.429,9.429,0,0,0,3.3,6.532,9.288,9.288,0,0,0,6.853,2.206,8.569,8.569,0,0,0,4.13-1.375.553.553,0,0,1,.851.491C76.112,58.348,70.267,69.221,62.837,69.221ZM50.493,48.131a11.979,11.979,0,0,0-.19,2.134c0,6.886,5.74,17.85,12.535,17.85,6.369,0,11.651-9.4,12.4-16.122a9.605,9.605,0,0,1-3.711,1.015A10.5,10.5,0,0,1,60.3,44.145a10.714,10.714,0,0,1-7.527,4.065,12.984,12.984,0,0,1-2.278-.079Z" transform="translate(-49.19 -41.88)" fill="#fff" stroke="#707070" stroke-width="1"/>
          </g>
        </g>
      </g>
    </g>
  </g>
</svg>
