<svg id="consulting_1_" data-name="consulting (1)" xmlns="http://www.w3.org/2000/svg" width="60" height="60" viewBox="0 0 60 60">
  <path id="Path_44" data-name="Path 44" d="M54.631,256.713l-2.422-.841a5.849,5.849,0,0,0,2.228-4.593V249.5a5.858,5.858,0,1,0-11.716,0v1.775a5.849,5.849,0,0,0,2.228,4.593l-2.422.841a7.978,7.978,0,0,0-3.795,2.791H32.189v-2.582a7.994,7.994,0,0,0-5.368-7.546l-2.422-.841a5.849,5.849,0,0,0,2.228-4.593v-1.775a5.858,5.858,0,1,0-11.716,0v1.775a5.85,5.85,0,0,0,2.228,4.593l-2.422.841a7.994,7.994,0,0,0-5.368,7.546V259.5H.887a.888.888,0,0,0-.888.888v7.337a.888.888,0,0,0,.888.888H37.81a.809.809,0,0,1,.237,0H59.112a.888.888,0,0,0,.888-.888v-3.47a7.994,7.994,0,0,0-5.368-7.546ZM44.5,249.5a4.083,4.083,0,0,1,8.166,0v1.775a4.083,4.083,0,1,1-8.166,0Zm-27.811-7.337a4.083,4.083,0,0,1,8.166,0v1.775a4.083,4.083,0,0,1-8.166,0Zm5.945,7.633.862.3-2.725,4.727L18.044,250.1l.862-.3Zm-11.507,7.122a6.218,6.218,0,0,1,4.175-5.869l1.038-.36L20,257.048a.888.888,0,0,0,1.538,0l3.663-6.356,1.038.36a6.218,6.218,0,0,1,4.175,5.869V259.5H11.124Zm-9.349,4.357H37.738a7.96,7.96,0,0,0-.578,2.98v2.582H1.775Zm56.45,5.562H38.935v-2.582a6.218,6.218,0,0,1,4.175-5.869l3.608-1.252h3.724l3.608,1.252a6.218,6.218,0,0,1,4.175,5.869Zm0,0" transform="translate(0.001 -208.616)" fill="#fff"/>
  <path id="Path_45" data-name="Path 45" d="M54.378,6.39H45.362a.888.888,0,1,0,0,1.775h9.016a3.851,3.851,0,0,1,3.846,3.847V24.32a3.85,3.85,0,0,1-3.846,3.846H42.189a.888.888,0,0,0-.888.888v3.775l-4.4-4.4a.887.887,0,0,0-.628-.26H29.053a3.851,3.851,0,0,1-3.847-3.846V12.012a3.851,3.851,0,0,1,3.847-3.846h12.16a.888.888,0,0,0,0-1.775H36.568V5.621A5.628,5.628,0,0,0,30.946,0H5.621A5.628,5.628,0,0,0,0,5.621V7.584a.888.888,0,0,0,1.775,0V5.621A3.85,3.85,0,0,1,5.621,1.775H30.946a3.85,3.85,0,0,1,3.846,3.846V6.39H29.053a5.628,5.628,0,0,0-5.621,5.621v9.763h-9.29a.888.888,0,0,0-.888.888v3.775l-4.4-4.4a.887.887,0,0,0-.628-.26h-2.6a3.85,3.85,0,0,1-3.846-3.846V11.711a.888.888,0,0,0-1.775,0v6.218A5.628,5.628,0,0,0,5.621,23.55H7.857l5.658,5.658a.888.888,0,0,0,1.515-.628V23.55h8.4v.77a5.627,5.627,0,0,0,5.621,5.621H35.9L41.561,35.6a.888.888,0,0,0,1.515-.628V29.94h11.3A5.627,5.627,0,0,0,60,24.32V12.012A5.628,5.628,0,0,0,54.378,6.39Zm0,0" transform="translate(0.001 0)" fill="#01d7ed"/>
</svg>
