<svg id="working-time" xmlns="http://www.w3.org/2000/svg" width="73.333" height="73.34" viewBox="0 0 73.333 73.34">
  <path id="Path_191" data-name="Path 191" d="M53.689,36.67A17.025,17.025,0,1,1,36.67,53.7,17,17,0,0,1,53.689,36.67ZM31.425,2.654V6.548a1.31,1.31,0,0,0,2.619,0V2.654a29.973,29.973,0,0,1,19.044,7.877l-2.762,2.762a1.314,1.314,0,0,0,1.861,1.856l2.755-2.762a30.027,30.027,0,0,1,7.912,20.361,30.789,30.789,0,0,1-.2,3.471A19.639,19.639,0,0,0,36.211,62.659a29.3,29.3,0,0,1-3.477.2,30.035,30.035,0,0,1-20.361-7.912l2.762-2.762a1.305,1.305,0,1,0-1.842-1.849L10.524,53.1A29.977,29.977,0,0,1,2.64,34.051h3.9a1.31,1.31,0,1,0,0-2.619H2.64a30.014,30.014,0,0,1,7.884-19.051l2.769,2.769a1.308,1.308,0,0,0,1.842-1.856l-2.762-2.762A30.023,30.023,0,0,1,31.425,2.654ZM32.734,0a32.741,32.741,0,0,0,0,65.482,32.229,32.229,0,0,0,4.973-.382A19.637,19.637,0,1,0,65.1,37.714a33.1,33.1,0,0,0,.375-4.966A32.768,32.768,0,0,0,32.734,0Z" fill="#667496"/>
  <path id="Path_193" data-name="Path 193" d="M26.581,25.649a2.612,2.612,0,1,1-2.619,2.619A2.6,2.6,0,0,1,26.581,25.649ZM26.581,6a1.313,1.313,0,0,0-1.31,1.3V23.194a5.293,5.293,0,0,0-3.765,3.758H9.556a1.31,1.31,0,1,0,0,2.619H21.507a5.239,5.239,0,1,0,6.384-6.377V7.307A1.3,1.3,0,0,0,26.581,6Z" transform="translate(6.153 4.48)" fill="#01d7ed"/>
  <g id="rupee" transform="translate(49.323 45.82)">
    <g id="Group_266" data-name="Group 266">
      <path id="Path_194" data-name="Path 194" d="M68.206,4.809H65.492a5.35,5.35,0,0,0-2.143-3.74h4.857a.534.534,0,0,0,0-1.069H56.9a.534.534,0,1,0,0,1.069h3.238a4.318,4.318,0,0,1,4.28,3.74H56.9a.534.534,0,1,0,0,1.069h7.518a4.325,4.325,0,0,1-4.28,3.794H56.9a.543.543,0,0,0-.534.55.552.552,0,0,0,.166.385l8.085,7.647a.532.532,0,0,0,.753-.021.545.545,0,0,0-.021-.764L58.241,10.74h1.892a5.4,5.4,0,0,0,5.36-4.863h2.714a.534.534,0,0,0,0-1.069Z" transform="translate(-56.365)" fill="#01d7ed" stroke="#01d7ed" stroke-width="1"/>
    </g>
  </g>
</svg>
